<svg id="Layer_1" data-name="Layer 1" xmlns="http://www.w3.org/2000/svg" viewBox="0 0 82.25 82.25">
  <defs>
    <style>
      .cls-1 {
        fill: #d9c2af;
      }

      .cls-1, .cls-2, .cls-3, .cls-4 {
        stroke: #231f20;
        stroke-miterlimit: 10;
        stroke-width: 0.02px;
      }

      .cls-2 {
        fill: #eddcb2;
      }

      .cls-3 {
        fill: #d9b39a;
      }

      .cls-4, .cls-6 {
        fill: none;
      }

      .cls-5 {
        fill: #fff;
      }
    </style>
  </defs>
  <title>categoriesButtons_coffee</title>
  <g>
    <g>
      <path class="cls-1" d="M21.32,30.54l7,3.76a.52.52,0,0,1-.47,0C27.56,34.19,22.4,32,21.32,30.54Z"/>
      <path class="cls-1" d="M60.65,15A8.61,8.61,0,0,0,58.92,19c.08.7-1.85,1.34-1.85,1.34a3.32,3.32,0,0,1-.13.92c-.08.11-.28.08-.44,0l-.23-.07c-.14-.06-.34.19-.42.19a2.61,2.61,0,0,0-2.21.36s-.83,0-.83.12a1,1,0,0,1-.16.33,2.19,2.19,0,0,1-.65.67,4.63,4.63,0,0,1,.76.22l.05,0c.19.17,2.12.67,2.31,1.17A4.32,4.32,0,0,1,55,26.72c-.28.58-1.06,1.28-1,1.53s0,1.09-.19,1.17a2.78,2.78,0,0,1-.67.11s-1.26.73-1.48.87l0,0c-.29.17-1.3.6-1.3.79a12.62,12.62,0,0,1-3.25-.33,5.09,5.09,0,0,1-1.81-.56,5.43,5.43,0,0,0-2.14-.85c-.26-.06-.48-.09-.62-.11a10.34,10.34,0,0,0-1.76-.1,16.23,16.23,0,0,0-2.39,0,1.35,1.35,0,0,0-.36.08c-.91.31-2,0-2.16.36a3.13,3.13,0,0,1-.85.95l0,0a3.25,3.25,0,0,1-1.64.61s-1.05.82-1.55.72a.79.79,0,0,0-.46.07,3.7,3.7,0,0,0-1.25.88c-.2.24-.52.28-.84.46a1.28,1.28,0,0,0-.46.4l-.22.27-.15-.33c-.84-1.53-2.44-1.93-3.19-2.46a14.63,14.63,0,0,0-3.89-1.06l-.24,0s0,0,0,0,.07-.5.16-1.09a6.38,6.38,0,0,1,.42-1.61,4.49,4.49,0,0,0,0-1.9.89.89,0,0,1,0-.24,4.19,4.19,0,0,0,.69-1.85c0-.85-.5-.95-.47-1.35,0-.12,0-.38,0-.71a6.38,6.38,0,0,1,.16-2.25,7.1,7.1,0,0,1,1.26-1.22c.05,0,.25-.1.53-.21,1-.36,3.15-1.09,3.42-1.24a3.85,3.85,0,0,1,2.33.38c.63.35,1.25.66,1.21.85A11.56,11.56,0,0,1,30,19.05c0,.08,0,0,0,.13s0,.38-.08.38a3,3,0,0,0-1.11.66.86.86,0,0,0-.13.14l-.35.47s-.89.36-1,.55a2.85,2.85,0,0,0-.09.41.79.79,0,0,0,0,.34,3.36,3.36,0,0,0,.31.76.56.56,0,0,1,.08.49,7.26,7.26,0,0,0,2.25-1l.08-.07c.65-.64.76-.92.95-1s2.07-1.41,2.73-1.91l.21-.15c.24-.22.28-.74.54-1.08s.6-.49.7-.69.43-1.18.67-1.88c.12-.32.21-.58.24-.63s.45-1.2.62-1.48a3.89,3.89,0,0,0,.43-.94c0-.17.45-.65.53-.8a2.7,2.7,0,0,1,.95-.49c.11,0,.17-.19.51-.19a2.86,2.86,0,0,1,1.19.32c.21.15.53-.17.75-.11s.8-.84,1.49-1.14l.06,0h0a1.4,1.4,0,0,1,.28-.06c.83-.06,1.16.25,1.25.44s1.8.75,2,1.06.44.81.64,1.23a1.53,1.53,0,0,1,.16.41c0,.14-.52.36-.69.8a2.71,2.71,0,0,1-.56,1l0,0-.7.49a3,3,0,0,0-.74.56,2.32,2.32,0,0,1,0,.75,5.72,5.72,0,0,0-2,.69,4.81,4.81,0,0,0-1.65,2c0,.07-.07.15-.11.23a.48.48,0,0,1,0,.35c-.06.24-.83.9-.72.93a5.1,5.1,0,0,0,.72-.14A7,7,0,0,0,42.4,21a3.42,3.42,0,0,0,1.35-.38A1.7,1.7,0,0,0,45,20.43c.57-.48,2.7-1.49,3.19-1.82a.31.31,0,0,0,.12-.15c.33-.57.17-2.22.61-2.3s.37-1,.48-1.68a1.51,1.51,0,0,1,.17-.52,8.69,8.69,0,0,0,.66-1.71,10.14,10.14,0,0,1-.54-1.47,5.94,5.94,0,0,1-.13-1.11,2.57,2.57,0,0,1,.13-.94,3.21,3.21,0,0,0,.08-1.13c.34,0,.37-.32.5-.35A5.93,5.93,0,0,1,51,7.06c.17,0,1.75-.28,2.06-.25A1.57,1.57,0,0,1,54,8c0,.5.5,1.78.31,2.22s-.22,1.47-.31,1.58.18.2.35.31,1.76-1.08,2.07-1.42.86-.47,1.67.06c.61.36,1.14.3,1.25.44a9.71,9.71,0,0,1,.19,1.7c0,.05,1.53.58,1.53,1S61.34,14.33,60.65,15Z"/>
      <path class="cls-2" d="M28.6,34.05a1.28,1.28,0,0,1-.32.25l-7-3.76h0a1,1,0,0,1-.19-.38c1.2.2,3.62.3,4.26.76C26.2,31.5,27.83,32.23,28.6,34.05Z"/>
      <path class="cls-3" d="M50.22,12.24A8.71,8.71,0,0,1,49.56,14c-.32.49-.16,2.12-.65,2.2s-.24,2.12-.73,2.45S45.57,20,45,20.42a1.69,1.69,0,0,1-1.24.18,2.2,2.2,0,0,0,.32-.21,1.05,1.05,0,0,0,.2-.45,5.31,5.31,0,0,0,2-1.39c.08-.14,0-.8.19-.94a5.24,5.24,0,0,0,1-1.19,7.62,7.62,0,0,1,.33-1.73c.25-.58.53-.52.56-.89a6.82,6.82,0,0,0,0-1.63,1,1,0,0,1,0-.64s-.1-1-.11-1.75a2.2,2.2,0,0,1,.11-.89c.25-.33.17-.45.25-.72a1.17,1.17,0,0,1,.72-.57h.47a3.21,3.21,0,0,1-.08,1.13,4.39,4.39,0,0,0,0,2A10.14,10.14,0,0,0,50.22,12.24Z"/>
      <path class="cls-4" d="M21.28,29,22,29s.93.21,1.33.32,1.78.81,2.1.87a14.08,14.08,0,0,1,2.1.93,13.3,13.3,0,0,1,1.77,2.29"/>
      <path class="cls-4" d="M21.7,25.52c1.62-.06,2.64,0,3.1,0s1.5,1.1,2.47,1.66,3.46,2.5,3.6,3.32a12.33,12.33,0,0,0,.5,1.5"/>
      <path class="cls-4" d="M21.92,21.37h.27a15.73,15.73,0,0,1,1.6,0,11.7,11.7,0,0,1,3.32.35l.16.08"/>
      <path class="cls-4" d="M23.87,17.69a9.86,9.86,0,0,0,1.68.31,5.77,5.77,0,0,1,2.2,1.16,13,13,0,0,1,1.05,1.06"/>
      <path class="cls-4" d="M29.9,22.34A18.11,18.11,0,0,1,31.51,24a11.06,11.06,0,0,1,1.4,2c.15.55,2.11,3,2.11,3.46v1.21"/>
      <path class="cls-4" d="M33.66,19.38c.4.5.83,1.09,1,1.26s1.55.82,1.6,1.67,1.85,4.46,1.8,4.81a14.65,14.65,0,0,0,.34,2.11"/>
      <path class="cls-4" d="M35.78,15.58a1.15,1.15,0,0,1,.84.32c.45.4,2.25,1.45,2.51,1.65s1,1.33,1.41,1.94"/>
      <path class="cls-4" d="M37.6,11.73a3.52,3.52,0,0,1,1.73.86c.3.3,1.78,1.61,1.94,1.88A5.91,5.91,0,0,1,42,15.84c0,.21.13,1,.21,1.68"/>
      <path class="cls-4" d="M42.49,10.12c.15.15.11.06.06,0s-.07-.12,0,0,.13.18.27.38c.7,1,.81,1.1.91,1.46s1,1.59,1,2.05a12.57,12.57,0,0,0,.21,1.54"/>
      <path class="cls-4" d="M42.4,21c.09.41.17,1,.33,1.63a21.55,21.55,0,0,1,.46,3.83c0,.47,0,2.09,0,3"/>
      <path class="cls-4" d="M46.89,17.13a11.33,11.33,0,0,1,1.41,1.33,2.69,2.69,0,0,1,.79,1.4,23.39,23.39,0,0,0,0,2.8,10,10,0,0,1-.37,3.88c-.24.51-1.06,2.83-1.59,4.34"/>
      <path class="cls-4" d="M52.65,22.17c-.19-1.53-.46-3.31-.46-3.84,0-.91-1-1.67-1.29-2.34a6.46,6.46,0,0,0-1.51-1.51c-.4-.32-.8-.63-1.11-.86"/>
      <path class="cls-4" d="M52.76,23.06a5.58,5.58,0,0,1,.05,1.54c-.14.43-.68,3.64-1.13,5.82"/>
      <path class="cls-4" d="M48.21,9.59c.45,0,.91,0,1.34.08a2.26,2.26,0,0,1,1.5.63c.83.88,4.24,3.45,4.29,3.82s1.3,3.89,1.19,4.54c-.05.32-.05,1.48,0,2.58"/>
    </g>
    <g>
      <path class="cls-5" d="M16.44,62.44a7.69,7.69,0,0,1-1.27-.11A5.91,5.91,0,0,1,14,62a3.54,3.54,0,0,1-.94-.53l.61-1.35a5.14,5.14,0,0,0,1.32.67,4.92,4.92,0,0,0,1.44.21,2.55,2.55,0,0,0,1.26-.26.82.82,0,0,0,.43-.73.64.64,0,0,0-.18-.47,1.5,1.5,0,0,0-.57-.34,8.87,8.87,0,0,0-1.06-.29,8.75,8.75,0,0,1-1.41-.39A3.45,3.45,0,0,1,14,58a1.79,1.79,0,0,1-.53-.7,2.45,2.45,0,0,1-.17-.93A2.25,2.25,0,0,1,13.69,55a2.82,2.82,0,0,1,1.18-1,4.33,4.33,0,0,1,1.79-.35,5.93,5.93,0,0,1,1.19.12,5.37,5.37,0,0,1,1.07.34,2.75,2.75,0,0,1,.83.53L19.15,56a4.43,4.43,0,0,0-1.2-.66,3.94,3.94,0,0,0-1.27-.22,2,2,0,0,0-1.16.3.92.92,0,0,0-.44.8.71.71,0,0,0,.17.47,1.5,1.5,0,0,0,.56.34,7.91,7.91,0,0,0,1.07.3,10.47,10.47,0,0,1,1.4.4,3.9,3.9,0,0,1,1,.52,1.92,1.92,0,0,1,.56.69,2.08,2.08,0,0,1,.18.89,2.31,2.31,0,0,1-.42,1.39,2.78,2.78,0,0,1-1.21.9A5.2,5.2,0,0,1,16.44,62.44Z"/>
      <path class="cls-5" d="M21.34,62.34V53.79h3.87a3.24,3.24,0,0,1,2.22.69,2.36,2.36,0,0,1,.77,1.86,2.33,2.33,0,0,1-.79,1.85,3.21,3.21,0,0,1-2.2.69h-2v3.46Zm1.87-4.89H25a1.71,1.71,0,0,0,1.11-.29,1,1,0,0,0,.36-.81,1,1,0,0,0-.36-.83A1.74,1.74,0,0,0,25,55.23H23.21Z"/>
      <path class="cls-5" d="M29.44,62.34V53.79h1.87v8.55Z"/>
      <path class="cls-5" d="M37,62.44a4.57,4.57,0,0,1-2.27-.54,3.62,3.62,0,0,1-1.47-1.53,4.87,4.87,0,0,1-.52-2.32,4.79,4.79,0,0,1,.52-2.3,3.62,3.62,0,0,1,1.47-1.53A4.57,4.57,0,0,1,37,53.68a5.09,5.09,0,0,1,1.62.26,3.42,3.42,0,0,1,1.27.73L39.34,56a4.3,4.3,0,0,0-1.13-.63,3.33,3.33,0,0,0-1.14-.2,2.23,2.23,0,0,0-1.77.73,3.23,3.23,0,0,0-.62,2.14,3.31,3.31,0,0,0,.62,2.16,2.2,2.2,0,0,0,1.77.73,3.33,3.33,0,0,0,1.14-.19,4.67,4.67,0,0,0,1.13-.64l.58,1.35a3.56,3.56,0,0,1-1.27.73A5.09,5.09,0,0,1,37,62.44Z"/>
      <path class="cls-5" d="M41.24,62.34V53.79h5.9v1.45H43.08v2h3.8v1.46h-3.8v2.16h4.06v1.46Z"/>
      <path class="cls-5" d="M51.3,62.44A7.69,7.69,0,0,1,50,62.33,5.91,5.91,0,0,1,48.88,62a3.54,3.54,0,0,1-.94-.53l.61-1.35a5.14,5.14,0,0,0,1.32.67,4.92,4.92,0,0,0,1.44.21,2.55,2.55,0,0,0,1.26-.26A.82.82,0,0,0,53,60a.64.64,0,0,0-.18-.47,1.5,1.5,0,0,0-.57-.34,8.87,8.87,0,0,0-1.06-.29,8.75,8.75,0,0,1-1.41-.39,3.45,3.45,0,0,1-1-.53,1.79,1.79,0,0,1-.53-.7,2.45,2.45,0,0,1-.17-.93A2.25,2.25,0,0,1,48.55,55a2.82,2.82,0,0,1,1.18-1,4.33,4.33,0,0,1,1.79-.35,5.93,5.93,0,0,1,1.19.12,5.37,5.37,0,0,1,1.07.34,2.75,2.75,0,0,1,.83.53L54,56a4.43,4.43,0,0,0-1.2-.66,3.94,3.94,0,0,0-1.27-.22,2,2,0,0,0-1.16.3.92.92,0,0,0-.44.8.71.71,0,0,0,.17.47,1.5,1.5,0,0,0,.56.34,7.91,7.91,0,0,0,1.07.3,10.47,10.47,0,0,1,1.4.4,3.9,3.9,0,0,1,1,.52,1.92,1.92,0,0,1,.56.69,2.08,2.08,0,0,1,.18.89,2.31,2.31,0,0,1-.42,1.39,2.78,2.78,0,0,1-1.21.9A5.2,5.2,0,0,1,51.3,62.44Z"/>
      <path class="cls-5" d="M66.35,60.78a4,4,0,0,1-.65-.46,5.83,5.83,0,0,0,.54-1.09,6.82,6.82,0,0,0,.41-2.11h-1.5a5.6,5.6,0,0,1-.47,2l-.06.12-1.48-1.45a4.28,4.28,0,0,0,.52-.35,2.73,2.73,0,0,0,.77-.84,2,2,0,0,0,.25-1,1.75,1.75,0,0,0-.61-1.4,2.37,2.37,0,0,0-1.63-.53,3.06,3.06,0,0,0-1.29.26,2.16,2.16,0,0,0-.87.73A2,2,0,0,0,60,55.81a2,2,0,0,0,.1.64,2.4,2.4,0,0,0,.32.64,4.71,4.71,0,0,0,.42.51,4.17,4.17,0,0,0-1.12.86A2.35,2.35,0,0,0,59.1,60a2.1,2.1,0,0,0,.39,1.26,2.54,2.54,0,0,0,1.06.83,4,4,0,0,0,1.6.3,3.76,3.76,0,0,0,1.7-.39,4,4,0,0,0,.85-.57,4.72,4.72,0,0,0,.7.5,5.24,5.24,0,0,0,1.15.49l.88-1.25A5.18,5.18,0,0,1,66.35,60.78Zm-4.52-5.63a.89.89,0,0,1,.63-.23.8.8,0,0,1,.57.21.78.78,0,0,1,.21.58.88.88,0,0,1-.16.51,2,2,0,0,1-.53.48l-.33.19c-.11-.12-.21-.22-.28-.31a1.8,1.8,0,0,1-.28-.42,1,1,0,0,1-.07-.38A.85.85,0,0,1,61.83,55.15Zm1.79,5.39a2.23,2.23,0,0,1-1.42.51,1.5,1.5,0,0,1-1-.3,1,1,0,0,1-.36-.83,1.45,1.45,0,0,1,.15-.66,1.84,1.84,0,0,1,.49-.57l.22-.16,2,1.95Z"/>
      <path class="cls-5" d="M13.45,75.34V66.79h1.87v7h3.82v1.53Z"/>
      <path class="cls-5" d="M20.28,75.34V66.79h5.89v1.45H22.12v2h3.8v1.46h-3.8v2.16h4.05v1.46Z"/>
      <path class="cls-5" d="M34.82,70.62v4.19a7,7,0,0,1-1,.35,8.74,8.74,0,0,1-2.24.28,4.94,4.94,0,0,1-2.35-.52,3.73,3.73,0,0,1-1.53-1.52,5.43,5.43,0,0,1,0-4.68,3.72,3.72,0,0,1,1.51-1.51,4.75,4.75,0,0,1,2.29-.53,5.68,5.68,0,0,1,1.72.26,3.61,3.61,0,0,1,1.32.7L34,69a4.83,4.83,0,0,0-1.17-.63,4,4,0,0,0-1.22-.19,2.34,2.34,0,0,0-1.86.72,3.26,3.26,0,0,0-.61,2.16,3.3,3.3,0,0,0,.64,2.22,2.46,2.46,0,0,0,1.95.73,5.79,5.79,0,0,0,.92-.07l.48-.11V71.93H31.44V70.62Z"/>
      <path class="cls-5" d="M40,75.44a3.72,3.72,0,0,1-2.74-.92,3.67,3.67,0,0,1-.93-2.71v-5H38.2v5.1a2.32,2.32,0,0,0,.46,1.56A1.75,1.75,0,0,0,40,74a1.68,1.68,0,0,0,1.35-.54,2.33,2.33,0,0,0,.47-1.56v-5.1h1.86v5a3.62,3.62,0,0,1-.95,2.7A3.73,3.73,0,0,1,40,75.44Z"/>
      <polygon class="cls-5" points="53.85 66.79 53.85 75.34 52.19 75.34 52.18 70.69 50.22 75.34 49.01 75.34 47.03 70.74 47.03 75.34 45.39 75.34 45.39 66.79 46.87 66.79 49.63 73.08 52.37 66.79 53.85 66.79"/>
      <path class="cls-5" d="M55.57,75.34V66.79h5.89v1.45H57.41v2h3.8v1.46h-3.8v2.16h4.05v1.46Z"/>
      <path class="cls-5" d="M65.63,75.44a7.59,7.59,0,0,1-1.27-.11A6,6,0,0,1,63.2,75a3.48,3.48,0,0,1-.93-.53l.61-1.35a4.84,4.84,0,0,0,1.32.67,4.92,4.92,0,0,0,1.44.21,2.5,2.5,0,0,0,1.25-.26.81.81,0,0,0,.44-.73.64.64,0,0,0-.18-.47,1.5,1.5,0,0,0-.57-.34,8.87,8.87,0,0,0-1.06-.29,9.2,9.2,0,0,1-1.42-.39,3.38,3.38,0,0,1-.95-.53,1.79,1.79,0,0,1-.53-.7,2.27,2.27,0,0,1-.17-.93A2.31,2.31,0,0,1,62.87,68a2.85,2.85,0,0,1,1.19-1,4.28,4.28,0,0,1,1.78-.35,6,6,0,0,1,1.2.12,5.59,5.59,0,0,1,1.07.34,2.75,2.75,0,0,1,.83.53L68.34,69a4.43,4.43,0,0,0-1.2-.66,4,4,0,0,0-1.27-.22,2,2,0,0,0-1.17.3.94.94,0,0,0-.43.8.71.71,0,0,0,.17.47A1.5,1.5,0,0,0,65,70a7.91,7.91,0,0,0,1.07.3,9.88,9.88,0,0,1,1.39.4,3.8,3.8,0,0,1,1,.52A1.92,1.92,0,0,1,69,72a2.08,2.08,0,0,1,.18.89,2.31,2.31,0,0,1-.42,1.39,2.84,2.84,0,0,1-1.21.9A5.2,5.2,0,0,1,65.63,75.44Z"/>
    </g>
  </g>
  <rect class="cls-6" x="0.5" y="0.5" width="81.25" height="81.25"/>
</svg>
