<svg id="Layer_1" data-name="Layer 1" xmlns="http://www.w3.org/2000/svg" viewBox="0 0 82.25 82.25">
  <defs>
    <style>
      .cls-1 {
        fill: #d2ad80;
        stroke: #231f20;
        stroke-miterlimit: 10;
        stroke-width: 0.02px;
      }

      .cls-2 {
        fill: #fff;
      }

      .cls-3 {
        fill: none;
      }
    </style>
  </defs>
  <title>categoriesButtons_coffee</title>
  <g>
    <g>
      <path class="cls-1" d="M27.76,49.71h0a.82.82,0,0,1-1.14-.11l-5.2-6.25a.81.81,0,0,1,.1-1.14h0a.82.82,0,0,1,1.14.11l5.2,6.25A.81.81,0,0,1,27.76,49.71Z"/>
      <path class="cls-1" d="M31.34,48.49a.83.83,0,0,1-1.15-.11L23,39.68a.81.81,0,0,1,.11-1.15l.16-.11a.85.85,0,0,1,1,.22l7.23,8.7A.81.81,0,0,1,31.34,48.49Z"/>
      <path class="cls-1" d="M34.65,46.92a.82.82,0,0,1-1.15-.1L24.82,36.38a.82.82,0,0,1,.1-1.15l.17-.11a.81.81,0,0,1,1,.22l8.68,10.43A.82.82,0,0,1,34.65,46.92Z"/>
      <path class="cls-1" d="M37.08,44.43l0,0a.79.79,0,0,1-1.11-.1l-8-9.62a.79.79,0,0,1,.1-1.11l.05,0a.78.78,0,0,1,1.1.1l8,9.63A.8.8,0,0,1,37.08,44.43Z"/>
      <path class="cls-1" d="M39,41.07l-.13.11a.74.74,0,0,1-1-.09L31,32.86a.73.73,0,0,1,.09-1l.13-.11a.74.74,0,0,1,1,.1L39.11,40A.74.74,0,0,1,39,41.07Z"/>
      <path class="cls-1" d="M61,15.25a.13.13,0,0,1-.05.13c-1.1,1-17.4,15.34-17.81,15.79s-2.7,2.16-3.92,3.08a.36.36,0,0,0-.05.52l2,2.4a.66.66,0,0,1-.08.92l-.25.21a.66.66,0,0,1-.93-.09l-5.43-6.54a.65.65,0,0,1,.08-.92l.25-.21a.65.65,0,0,1,.92.09l1.65,2a.36.36,0,0,0,.54,0c.75-.79,2.79-2.93,3.29-3.37s16.84-16,17.65-16.15S60.91,14.38,61,15.25Z"/>
    </g>
    <g>
      <polygon class="cls-2" points="26.89 60.49 26.89 69.04 25.06 69.04 25.06 65.44 21.1 65.44 21.1 69.04 19.26 69.04 19.26 60.49 21.1 60.49 21.1 63.96 25.06 63.96 25.06 60.49 26.89 60.49"/>
      <path class="cls-2" d="M32.53,69.15a4.35,4.35,0,0,1-2.22-.54,3.69,3.69,0,0,1-1.45-1.53,5.53,5.53,0,0,1,0-4.64,3.67,3.67,0,0,1,1.45-1.52,4.89,4.89,0,0,1,4.43,0,3.64,3.64,0,0,1,1.44,1.52,5.63,5.63,0,0,1,0,4.64,3.67,3.67,0,0,1-1.44,1.53A4.31,4.31,0,0,1,32.53,69.15Zm0-1.45A2,2,0,0,0,34.2,67a3.33,3.33,0,0,0,.62-2.19,3.28,3.28,0,0,0-.62-2.18,2.27,2.27,0,0,0-3.35,0,4.22,4.22,0,0,0,0,4.37A2.06,2.06,0,0,0,32.53,67.7Z"/>
      <polygon class="cls-2" points="45.55 60.49 45.55 69.04 44.16 69.04 39.9 63.6 39.9 69.04 38.15 69.04 38.15 60.49 39.53 60.49 43.79 65.94 43.79 60.49 45.55 60.49"/>
      <path class="cls-2" d="M47.27,69V60.5h5.89V62H49.1v2h3.81v1.47H49.1v2.16h4.06V69Z"/>
      <polygon class="cls-2" points="62.99 60.49 59.45 65.72 59.45 69.04 57.56 69.04 57.56 65.69 54.05 60.49 56.17 60.49 58.5 64.15 60.85 60.49 62.99 60.49"/>
    </g>
  </g>
  <rect class="cls-3" x="0.5" y="0.5" width="81.25" height="81.25"/>
</svg>
