<svg id="Layer_1" data-name="Layer 1" xmlns="http://www.w3.org/2000/svg" viewBox="0 0 82.25 82.25">
  <defs>
    <style>
      .cls-1 {
        fill: #fff;
      }

      .cls-2 {
        fill: #ccb196;
      }

      .cls-2, .cls-3, .cls-4, .cls-5 {
        stroke: #231f20;
        stroke-miterlimit: 10;
        stroke-width: 0.02px;
      }

      .cls-3 {
        fill: #f7f0eb;
      }

      .cls-4 {
        fill: #9a7b5d;
      }

      .cls-5 {
        fill: #e5ddd8;
      }

      .cls-6 {
        fill: none;
      }
    </style>
  </defs>
  <title>categoriesButtons_coffee</title>
  <g>
    <g>
      <path class="cls-1" d="M34.21,66.39a1.63,1.63,0,0,0-.56-.8,1.08,1.08,0,0,0-.51-.23,2.6,2.6,0,0,0,.94-.52,2.57,2.57,0,0,0,0-3.69,3.42,3.42,0,0,0-2.26-.65H28V69h1.85V65.6h1.21a1.53,1.53,0,0,1,.66.13.79.79,0,0,1,.42.47L33.26,69h2Zm-2.65-2.22H29.87V61.94h1.69a2,2,0,0,1,1.18.27,1,1,0,0,1,.37.85,1,1,0,0,1-.37.84A2,2,0,0,1,31.56,64.17Z"/>
      <path class="cls-1" d="M36.52,69V60.5H38.4V69Z"/>
      <path class="cls-1" d="M44.12,69.15a4.57,4.57,0,0,1-2.27-.54,3.62,3.62,0,0,1-1.47-1.53,5.41,5.41,0,0,1,0-4.63,3.65,3.65,0,0,1,1.47-1.52,4.57,4.57,0,0,1,2.27-.54,4.83,4.83,0,0,1,1.62.26,3.41,3.41,0,0,1,1.27.72l-.59,1.35a4.11,4.11,0,0,0-1.12-.63,3.11,3.11,0,0,0-1.14-.2,2.23,2.23,0,0,0-1.77.72,4,4,0,0,0,0,4.3,2.21,2.21,0,0,0,1.77.74,3.33,3.33,0,0,0,1.14-.2,4.11,4.11,0,0,0,1.12-.63L47,68.16a3.29,3.29,0,0,1-1.27.73A5.09,5.09,0,0,1,44.12,69.15Z"/>
      <path class="cls-1" d="M48.33,69V60.5h5.89V62h-4v2H54v1.47h-3.8v2.16h4V69Z"/>
    </g>
    <g>
      <g>
        <path class="cls-2" d="M53.46,52.09c-5.73,1.15-32.28,2.29-32-3.24,0-.58,4.3-3.44,4.3-4.59S25.1,42,25.1,40.63s1.53-5.15,1.53-6-.77-7.74-.58-8.41,1.24-.76.58-1.62-3-4.87-2.47-5.63C24.4,18.62,27,16.5,31.59,15a23.26,23.26,0,0,0-5.19,3.76,38.61,38.61,0,0,0,7.71,2.47,71.05,71.05,0,0,0,11.29,0c.88-.16,8-.69,10.37-3.08a26,26,0,0,0-4-2.79,45.17,45.17,0,0,1,5.42,2.13c1.36.64,2.58.58-.76,7.36-.19,2,0,7.39-.19,8s2.24,11.48,1.86,12.44,2.49,1.79,2.68,2.84S59.19,51,53.46,52.09Z"/>
        <path class="cls-3" d="M55.77,18.18c-2.38,2.39-9.49,2.92-10.37,3.08a71.05,71.05,0,0,1-11.29,0,38.61,38.61,0,0,1-7.71-2.47A23.26,23.26,0,0,1,31.59,15c.41-.21.84-.4,1.27-.58,3.59-1.44,12.08-1.8,15.37-.72a18.8,18.8,0,0,1,3.53,1.66A26,26,0,0,1,55.77,18.18Z"/>
        <path class="cls-4" d="M26.58,25.83s3.7,1.38,3.93,1.38a16.43,16.43,0,0,1,2.91.23c1,.23,3.84,1,4.35,1s4.81-1.14,6.06-.92,7.38,1.15,7.9.92S56,27.15,56,26.93V25.59s-2.61,2-4.14,2.07-7-.58-7.45-.61-6.27.86-6.27.86a37.06,37.06,0,0,1-4.39-.86,12.76,12.76,0,0,0-3.1-.39c-.32,0-3.43-1.18-3.61-1.21S26.58,25.83,26.58,25.83Z"/>
        <path class="cls-4" d="M26.45,44a27.62,27.62,0,0,0,2.13,2.68,15.52,15.52,0,0,0,1.33,1,10.06,10.06,0,0,1-2.38-1.43,14.38,14.38,0,0,1-1.45-1.83Z"/>
        <path class="cls-4" d="M57.47,46.23l-4,4.65s3-2.7,3.3-3,1.15-1.22,1.15-1.22Z"/>
      </g>
      <path class="cls-5" d="M32.63,17.11a1.62,1.62,0,0,1,1.83,0A2.66,2.66,0,0,1,32.63,17.11Z"/>
      <path class="cls-5" d="M33.8,18.87a1.62,1.62,0,0,1,1.83,0A2.59,2.59,0,0,1,33.8,18.87Z"/>
      <path class="cls-5" d="M36,15.46a1.62,1.62,0,0,1,1.83,0A2.66,2.66,0,0,1,36,15.46Z"/>
      <path class="cls-5" d="M38.77,19.1a1.62,1.62,0,0,1,1.83,0A2.59,2.59,0,0,1,38.77,19.1Z"/>
      <path class="cls-5" d="M49,16.57a1.62,1.62,0,0,1,1.83,0A2.66,2.66,0,0,1,49,16.57Z"/>
      <path class="cls-5" d="M41.58,17a1.62,1.62,0,0,1,1.83,0A2.66,2.66,0,0,1,41.58,17Z"/>
      <path class="cls-5" d="M44.23,18.64a1.62,1.62,0,0,1,1.83,0A2.59,2.59,0,0,1,44.23,18.64Z"/>
      <path class="cls-5" d="M46.64,14.84a1.62,1.62,0,0,1,1.83,0A2.59,2.59,0,0,1,46.64,14.84Z"/>
      <path class="cls-5" d="M42.6,15.23a1.62,1.62,0,0,1,1.83,0A2.66,2.66,0,0,1,42.6,15.23Z"/>
    </g>
  </g>
  <rect class="cls-6" x="0.5" y="0.5" width="81.25" height="81.25"/>
</svg>
