<svg id="Layer_1" data-name="Layer 1" xmlns="http://www.w3.org/2000/svg" viewBox="0 0 82.25 82.25">
  <defs>
    <style>
      .cls-1 {
        fill: #341b35;
      }

      .cls-1, .cls-2, .cls-3 {
        stroke: #231f20;
        stroke-miterlimit: 10;
        stroke-width: 0.02px;
      }

      .cls-2 {
        fill: #59415b;
      }

      .cls-3 {
        fill: #a8b956;
      }

      .cls-4 {
        fill: #fff;
      }

      .cls-5 {
        fill: none;
      }
    </style>
  </defs>
  <title>categoriesButtons_coffee</title>
  <g>
    <g>
      <path class="cls-1" d="M52.51,24.62C50.8,27.53,47,33,45.78,34.68a14.81,14.81,0,0,0-1.68,4.73,21.11,21.11,0,0,1-1.6,5c-1.22,2.21-3.72,7-8.62,8a9.16,9.16,0,0,1-1.86.19,11.3,11.3,0,0,1-1.87-.17,4.71,4.71,0,0,1-2.51-1.21c-3.8-3.65-.61-13.79.45-16.3C29.65,31.2,37.58,23.69,39.43,22c1.34-1.23,4-2.28,5.59-3,.24-.1.45-.2.63-.29l.71.09a5,5,0,0,1,1.35.28l.11.11h0a4.05,4.05,0,0,0-.54,1.29v2.19a23.6,23.6,0,0,1,2.36-1.18c0,.13-.16.72-.28,1.27a4.93,4.93,0,0,0-.15.87,10.68,10.68,0,0,0,0,2.44,13.48,13.48,0,0,0,1.45-2.54c0-.31.38.47.44.81,0,.06,0,.08.08.07.21,0,.77-.75.94-1S52.43,24.05,52.51,24.62Z"/>
      <path class="cls-2" d="M43.65,39.26a21.11,21.11,0,0,1-1.6,5c-1.22,2.21-3.72,7-8.62,8,.71-.62,1.66-1.44,2.9-2.42,3.08-2.47,3.36-4,5.17-7.3C42.16,41.3,43.06,40.27,43.65,39.26Z"/>
      <path class="cls-3" d="M54.28,16.05A12.77,12.77,0,0,0,53,19.12a12.43,12.43,0,0,1,.36,3.78,7.64,7.64,0,0,1-.84,1.72c-.08-.57-.21-1.39-.35-1.21s-.73,1-.94,1c0,0-.07,0-.08-.07-.06-.34-.4-1.12-.44-.81a13.48,13.48,0,0,1-1.45,2.54,10.68,10.68,0,0,1,0-2.44,4.93,4.93,0,0,1,.15-.87c.12-.55.28-1.14.28-1.27a23.6,23.6,0,0,0-2.36,1.18V20.46a4.05,4.05,0,0,1,.54-1.29h0l-.11-.11a5,5,0,0,0-1.35-.28c-.23,0-.47-.06-.71-.09a2.1,2.1,0,0,0,.56-.37c.49-.59,3.13-1,3.91-1.17s5.67-4.59,5.67-4.59l.63.57S54.64,15.41,54.28,16.05Z"/>
    </g>
    <g>
      <polygon class="cls-4" points="11.52 61.05 7.68 69.59 6.17 69.59 2.31 61.05 4.27 61.05 6.94 67.25 9.62 61.05 11.52 61.05"/>
      <path class="cls-4" d="M12.18,69.59V61.05h5.89V62.5H14v2h3.8V66H14v2.16h4.05v1.45Z"/>
      <path class="cls-4" d="M26.71,64.88v4.18a4.71,4.71,0,0,1-.94.35,7.51,7.51,0,0,1-1.09.22,8.77,8.77,0,0,1-1.15.07,5,5,0,0,1-2.36-.53,3.57,3.57,0,0,1-1.52-1.51,4.83,4.83,0,0,1-.54-2.35A4.77,4.77,0,0,1,19.65,63a3.64,3.64,0,0,1,1.5-1.51,4.79,4.79,0,0,1,2.3-.53,5.61,5.61,0,0,1,1.71.25,3.61,3.61,0,0,1,1.32.71l-.6,1.34a4.94,4.94,0,0,0-1.17-.62,3.65,3.65,0,0,0-1.21-.19,2.31,2.31,0,0,0-1.86.72,4.08,4.08,0,0,0,0,4.37,2.42,2.42,0,0,0,1.94.74,5.72,5.72,0,0,0,.92-.08,3.88,3.88,0,0,0,.49-.11V66.18H23.34v-1.3Z"/>
      <path class="cls-4" d="M28.31,69.59V61.05H34.2V62.5H30.15v2H34V66h-3.8v2.16H34.2v1.45Z"/>
      <path class="cls-4" d="M37.56,69.59v-7H34.89V61.05h7.24v1.52H39.46v7Z"/>
      <path class="cls-4" d="M46.5,61.05H45l-3.93,8.54H43l.81-1.89h4l.81,1.89h1.86Zm-2.12,5.22,1.38-3.21,1.38,3.21Z"/>
      <path class="cls-4" d="M57.75,65.87a2.14,2.14,0,0,0-1.15-.7,1.9,1.9,0,0,0,1-.67A2,2,0,0,0,58,63.27a1.94,1.94,0,0,0-.78-1.63,3.42,3.42,0,0,0-2.1-.59H51.15v8.54h4.06A3.44,3.44,0,0,0,57.4,69a2.07,2.07,0,0,0,.8-1.71A2.12,2.12,0,0,0,57.75,65.87ZM53,62.49h1.79a1.93,1.93,0,0,1,1.07.24,1.05,1.05,0,0,1,0,1.55,1.85,1.85,0,0,1-1.07.25H53Zm3.1,5.41a1.85,1.85,0,0,1-1.09.25H53V66h2a1.76,1.76,0,0,1,1.09.27,1,1,0,0,1,.34.83A1,1,0,0,1,56.09,67.9Z"/>
      <path class="cls-4" d="M59.51,69.59V61.05h1.87v7H65.2v1.52Z"/>
      <path class="cls-4" d="M66.34,69.59V61.05h5.89V62.5h-4v2H72V66h-3.8v2.16h4v1.45Z"/>
      <path class="cls-4" d="M76.39,69.7a7.47,7.47,0,0,1-1.26-.11A6,6,0,0,1,74,69.25a4.43,4.43,0,0,1-.94-.53l.62-1.35a4.72,4.72,0,0,0,2.76.88A2.39,2.39,0,0,0,77.66,68a.81.81,0,0,0,.44-.73.67.67,0,0,0-.18-.47,1.48,1.48,0,0,0-.58-.33,8.15,8.15,0,0,0-1-.29,7.67,7.67,0,0,1-1.42-.4,3.38,3.38,0,0,1-1-.52,1.75,1.75,0,0,1-.54-.71,2.46,2.46,0,0,1,.26-2.29,2.84,2.84,0,0,1,1.19-1,4.28,4.28,0,0,1,1.78-.35,5.79,5.79,0,0,1,1.19.12,5.05,5.05,0,0,1,1.08.34,3.09,3.09,0,0,1,.83.52l-.6,1.35a4.2,4.2,0,0,0-1.2-.66,3.75,3.75,0,0,0-1.28-.22,2,2,0,0,0-1.16.3.9.9,0,0,0-.43.79.65.65,0,0,0,.17.47,1.33,1.33,0,0,0,.55.34,7.51,7.51,0,0,0,1.08.31,8,8,0,0,1,1.39.4,3.83,3.83,0,0,1,1,.52,1.78,1.78,0,0,1,.55.68,2.13,2.13,0,0,1,.18.9,2.3,2.3,0,0,1-.42,1.38,2.63,2.63,0,0,1-1.21.9A5.16,5.16,0,0,1,76.39,69.7Z"/>
    </g>
  </g>
  <rect class="cls-5" x="0.5" y="0.5" width="81.25" height="81.25"/>
</svg>
