<svg id="Layer_1" data-name="Layer 1" xmlns="http://www.w3.org/2000/svg" viewBox="0 0 82.25 82.25">
  <defs>
    <style>
      .cls-1 {
        fill: #a37d5b;
      }

      .cls-1, .cls-2, .cls-3, .cls-4 {
        stroke: #231f20;
        stroke-miterlimit: 10;
        stroke-width: 0.02px;
      }

      .cls-2 {
        fill: #fbdb73;
      }

      .cls-3 {
        fill: #f9c631;
      }

      .cls-4 {
        fill: #824e20;
      }

      .cls-5 {
        fill: #fff;
      }

      .cls-6 {
        fill: none;
      }
    </style>
  </defs>
  <title>categoriesButtons_coffee</title>
  <g>
    <g>
      <path class="cls-1" d="M24.83,15.58a.31.31,0,0,0,0,.09,7.71,7.71,0,0,0,.86-.53s0-.05,0-.06c.32-.85-.79-2.21-1.28-2.45a1.81,1.81,0,0,0-.77-.07A3.13,3.13,0,0,1,24.83,15.58Z"/>
      <path class="cls-2" d="M24.84,15.67a42.81,42.81,0,0,0,1.68,4.71,15.4,15.4,0,0,0,.95,2,77.91,77.91,0,0,0,10.19,9.94,26.64,26.64,0,0,0,3.56,2.48,43.35,43.35,0,0,0,11.64,4.59c.59.12,2.49.17,3.52.2l0,0a12.17,12.17,0,0,0-1.58-.87c-1.84,0-5.05-.54-10-2.74a30.94,30.94,0,0,1-6.61-4.17,66.23,66.23,0,0,1-8.15-8,37.16,37.16,0,0,1-2.89-3.7c0-.18.75.47,1.61,1.17s1.5,1.81,2.41,2.73A37.53,37.53,0,0,0,41.3,29.67a31.74,31.74,0,0,0,6.07,1.57c.33.06.65.11,1,.14l.94.13.9.1c.7.07,1.35.12,1.93.16l.34,0c.46,0,.86.06,1.21.07l.34,0,.32,0h.39l.23,0,.52,0h.16l.61.06.24,0,.7.07.19,0c.27,0,.53.06.8.11l.5.07.45.07c.47.08.91.16,1.3.26l.59.16c-.81-1.36-6.19-1.86-6.53-1.92a50.14,50.14,0,0,0-5.86-.6c-2.51-.09-13.51-4-14.71-5s-6.67-5.66-7.1-6a10,10,0,0,1-1.1-4.21A7.71,7.71,0,0,1,24.84,15.67Z"/>
      <path class="cls-3" d="M27.09,20.09A37.16,37.16,0,0,0,30,23.79a66.23,66.23,0,0,0,8.15,8A30.94,30.94,0,0,0,44.74,36c5,2.2,8.2,2.71,10,2.74L54,38.36c1.86.26,7.74-4.11,7-5.47l0,0-.59-.16c-.39-.1-.83-.18-1.3-.26l-.45-.07-.5-.07c-.27,0-.53-.08-.8-.11l-.19,0-.7-.07-.24,0L55.62,32h-.16l-.52,0-.23,0h-.39l-.32,0-.34,0c-.35,0-.75,0-1.21-.07l-.34,0c-.58,0-1.23-.09-1.93-.16l-.9-.1-.94-.13c-.32,0-.64-.08-1-.14a31.74,31.74,0,0,1-6.07-1.57A37.53,37.53,0,0,1,31.11,24c-.91-.92-1.56-2-2.41-2.73S27.1,19.91,27.09,20.09Z"/>
      <path class="cls-4" d="M22.2,16.23a4.41,4.41,0,0,0,2.64-.56.31.31,0,0,1,0-.09,3.13,3.13,0,0,0-1.17-3c-.87,0-2.12.41-2.44,1.11S21.6,15.3,22.2,16.23Z"/>
      <path class="cls-3" d="M23.11,21c0,3.69,2.88,12.53,14.08,18.41A34.12,34.12,0,0,0,48,43.26c3.85.57,5.69-.23,5.69-.23,2.68-2,3.05-3,2.72-3.41-1,0-2.93-.08-3.52-.2a43.35,43.35,0,0,1-11.64-4.59,26.64,26.64,0,0,1-3.56-2.48,77.91,77.91,0,0,1-10.19-9.94,15.4,15.4,0,0,1-.95-2,42.81,42.81,0,0,1-1.68-4.71,4.41,4.41,0,0,1-2.64.56,6.89,6.89,0,0,1,.9,1.6c0,.14,0,.22.06.28h0C23.24,18.39,23.07,17.88,23.11,21Z"/>
      <path class="cls-3" d="M22.54,27.05c.47,2.5,3.66,10.55,8.25,13.4C34,42.46,40.84,44,41.84,44c.4,0,3.33-.33,4.83-.52C45,43,41.69,42,40.56,41.58a73.49,73.49,0,0,1-8.15-4.44c-1.78-1.19-6.22-6.65-7.49-8.58-1.15-1.77-1.86-5.85-2.18-8.18A25.31,25.31,0,0,0,22.54,27.05Z"/>
      <path class="cls-2" d="M22.74,20.38c.32,2.33,1,6.41,2.18,8.18,1.27,1.93,5.71,7.39,7.49,8.58a73.49,73.49,0,0,0,8.15,4.44C41.69,42,45,43,46.67,43.49a7.73,7.73,0,0,0,1.3-.23,34.12,34.12,0,0,1-10.78-3.82C26,33.56,23.15,24.72,23.11,21c0-3.15.13-2.64.05-2.91A17.18,17.18,0,0,0,22.74,20.38Z"/>
    </g>
    <g>
      <path class="cls-5" d="M20.23,69.59V61.05H26v1.48H22.07v2h3.68V66H22.07v3.6Z"/>
      <path class="cls-5" d="M33.34,66.94a1.69,1.69,0,0,0-.56-.8,1.08,1.08,0,0,0-.51-.23,2.68,2.68,0,0,0,.94-.52,2.57,2.57,0,0,0,0-3.69A3.45,3.45,0,0,0,31,61.05h-3.8v8.54H29V66.15h1.21a1.69,1.69,0,0,1,.66.12.84.84,0,0,1,.42.48l1.09,2.84h2Zm-2.65-2.22H29V62.49h1.69a2,2,0,0,1,1.18.27,1,1,0,0,1,.36.84,1,1,0,0,1-.37.84A1.94,1.94,0,0,1,30.69,64.72Z"/>
      <path class="cls-5" d="M39.29,69.7a3.73,3.73,0,0,1-2.74-.93,3.65,3.65,0,0,1-.93-2.71v-5h1.83v5.1a2.32,2.32,0,0,0,.46,1.56,1.75,1.75,0,0,0,1.38.54,1.68,1.68,0,0,0,1.35-.54,2.33,2.33,0,0,0,.47-1.56v-5.1H43v5A3.63,3.63,0,0,1,42,68.77,3.73,3.73,0,0,1,39.29,69.7Z"/>
      <path class="cls-5" d="M44.61,69.59V61.05h1.87v8.54Z"/>
      <path class="cls-5" d="M50.17,69.59v-7H47.49V61.05h7.25v1.52H52.06v7Z"/>
      <path class="cls-5" d="M58.48,69.7a6.56,6.56,0,0,1-1.26-.12,5.21,5.21,0,0,1-1.16-.33,4.06,4.06,0,0,1-.94-.54l.61-1.34a4.8,4.8,0,0,0,1.32.66,4.92,4.92,0,0,0,1.44.22A2.41,2.41,0,0,0,59.75,68a.81.81,0,0,0,.44-.73.67.67,0,0,0-.18-.47,1.43,1.43,0,0,0-.58-.33,7,7,0,0,0-1.06-.29,8.69,8.69,0,0,1-1.41-.4,3.6,3.6,0,0,1-1-.53,1.79,1.79,0,0,1-.53-.7,2.45,2.45,0,0,1-.17-.93,2.27,2.27,0,0,1,.43-1.36,2.84,2.84,0,0,1,1.19-1,4.1,4.1,0,0,1,1.78-.35,5.86,5.86,0,0,1,1.19.12,5.68,5.68,0,0,1,1.08.33,3.05,3.05,0,0,1,.82.53l-.6,1.35a4,4,0,0,0-1.2-.66,3.69,3.69,0,0,0-1.27-.22,2.07,2.07,0,0,0-1.16.29.93.93,0,0,0-.43.8.69.69,0,0,0,.16.47,1.45,1.45,0,0,0,.56.34,9.09,9.09,0,0,0,1.08.31,9.08,9.08,0,0,1,1.39.39,3.9,3.9,0,0,1,1,.53,1.72,1.72,0,0,1,.56.68,2.11,2.11,0,0,1,.18.89,2.31,2.31,0,0,1-.42,1.39,2.63,2.63,0,0,1-1.21.9A5.16,5.16,0,0,1,58.48,69.7Z"/>
    </g>
  </g>
  <rect class="cls-6" x="0.5" y="0.5" width="81.25" height="81.25"/>
</svg>
