<svg id="Layer_1" data-name="Layer 1" xmlns="http://www.w3.org/2000/svg" viewBox="0 0 82.25 82.25">
  <defs>
    <style>
      .cls-1 {
        fill: #754d45;
      }

      .cls-2 {
        fill: #55332c;
      }

      .cls-3 {
        fill: #694541;
      }

      .cls-4 {
        fill: #593f40;
      }

      .cls-5 {
        fill: #fff;
      }

      .cls-6 {
        fill: none;
      }
    </style>
  </defs>
  <title>categoriesButtons_coffee</title>
  <g>
    <g>
      <g>
        <path class="cls-1" d="M57.62,14.59a15,15,0,0,0-1.76,1.2c-.39.39-1.9,1.11-2.69,1.71S50.54,19.73,50,20a48,48,0,0,0-6.17,5.06c-.57.74-2.28,3.09-3.38,4.6-1.26-3.24-.76-9.66,4.35-14S55.49,13.44,57.62,14.59Z"/>
        <path class="cls-2" d="M59.52,16.59,54.15,22c-.72.73-5.38,5.46-6.7,6.9-.8.88-2.48,2.7-3.67,4a7.74,7.74,0,0,1-2.66-2,4.41,4.41,0,0,1-.66-1.2c1.1-1.51,2.81-3.86,3.38-4.6A48,48,0,0,1,50,20c.53-.26,2.37-1.9,3.16-2.49s2.3-1.32,2.69-1.71a15,15,0,0,1,1.76-1.2l.26.15a1.18,1.18,0,0,1,.33.3,7.57,7.57,0,0,1,.61.9,1.14,1.14,0,0,0,.41.46Z"/>
        <path class="cls-3" d="M61.11,20.58h0a33.19,33.19,0,0,1-5.25,7.16,77.36,77.36,0,0,1-8.7,6.11,11,11,0,0,1-3.38-1c1.19-1.27,2.87-3.09,3.67-4,1.32-1.44,6-6.17,6.7-6.9l5.37-5.37.13.09a1.15,1.15,0,0,1,.37.39A8,8,0,0,1,61.11,20.58Z"/>
        <path class="cls-4" d="M58,28.75c-3.54,4.56-7.58,5.56-10.88,5.11a77.36,77.36,0,0,0,8.7-6.11,33.19,33.19,0,0,0,5.25-7.16C61.25,22.74,60.58,25.49,58,28.75Z"/>
      </g>
      <g>
        <path class="cls-1" d="M24,24.94a14.74,14.74,0,0,0,.81,2c.3.47.7,2.1,1.11,3s1.65,3,1.79,3.6a46.3,46.3,0,0,0,3.68,7.09c.6.71,2.55,2.87,3.8,4.26-3.43.56-9.61-1.26-12.77-7.15S22.46,26.78,24,24.94Z"/>
        <path class="cls-2" d="M26.38,23.49l4.15,6.36c.56.86,4.22,6.4,5.36,8,.7,1,2.13,3,3.13,4.42a7.73,7.73,0,0,1-2.5,2.19,4.52,4.52,0,0,1-1.3.4c-1.25-1.39-3.2-3.55-3.8-4.26a46.3,46.3,0,0,1-3.68-7.09c-.14-.56-1.37-2.7-1.79-3.6s-.81-2.52-1.11-3a14.74,14.74,0,0,1-.81-2l.2-.23a1.08,1.08,0,0,1,.37-.26,6.85,6.85,0,0,1,1-.41,1.13,1.13,0,0,0,.54-.31Z"/>
        <path class="cls-3" d="M30.62,22.76h0a32.52,32.52,0,0,1,5.92,6.62,77.41,77.41,0,0,1,4.19,9.77A11.07,11.07,0,0,1,39,42.25c-1-1.43-2.43-3.45-3.13-4.42-1.14-1.58-4.8-7.12-5.36-8l-4.15-6.36a1.14,1.14,0,0,0,.11-.11A1.21,1.21,0,0,1,27,23.1,8.13,8.13,0,0,1,30.62,22.76Z"/>
        <path class="cls-4" d="M38,27.45c3.73,4.41,3.87,8.57,2.76,11.7a77.41,77.41,0,0,0-4.19-9.77,32.52,32.52,0,0,0-5.92-6.62C32.76,23.07,35.3,24.29,38,27.45Z"/>
      </g>
    </g>
    <g>
      <path class="cls-5" d="M23,69.15a4.57,4.57,0,0,1-2.27-.54,3.62,3.62,0,0,1-1.47-1.53,5.41,5.41,0,0,1,0-4.63,3.65,3.65,0,0,1,1.47-1.52A4.57,4.57,0,0,1,23,60.39a4.83,4.83,0,0,1,1.62.26,3.41,3.41,0,0,1,1.27.72l-.58,1.35a4.3,4.3,0,0,0-1.13-.63,3.11,3.11,0,0,0-1.14-.2,2.23,2.23,0,0,0-1.77.72,4,4,0,0,0,0,4.3,2.21,2.21,0,0,0,1.77.74,3.33,3.33,0,0,0,1.14-.2,4.3,4.3,0,0,0,1.13-.63l.58,1.34a3.29,3.29,0,0,1-1.27.73A5.09,5.09,0,0,1,23,69.15Z"/>
      <path class="cls-5" d="M31,69.15a4.35,4.35,0,0,1-2.22-.54,3.63,3.63,0,0,1-1.45-1.53,5.53,5.53,0,0,1,0-4.64,3.61,3.61,0,0,1,1.45-1.52,4.89,4.89,0,0,1,4.43,0,3.64,3.64,0,0,1,1.44,1.52,5.63,5.63,0,0,1,0,4.64,3.67,3.67,0,0,1-1.44,1.53A4.33,4.33,0,0,1,31,69.15Zm0-1.45A2,2,0,0,0,32.62,67a3.38,3.38,0,0,0,.62-2.19,3.33,3.33,0,0,0-.62-2.18,2.27,2.27,0,0,0-3.35,0,4.22,4.22,0,0,0,0,4.37A2.06,2.06,0,0,0,31,67.7Z"/>
      <path class="cls-5" d="M36.56,69V60.5h5.76V62H38.41v2h3.67v1.48H38.41V69Z"/>
      <path class="cls-5" d="M43.5,69V60.5h5.76V62H45.35v2H49v1.48H45.35V69Z"/>
      <path class="cls-5" d="M50.44,69V60.5h5.89V62H52.27v2h3.81v1.47H52.27v2.16h4.06V69Z"/>
      <path class="cls-5" d="M57.62,69V60.5h5.9V62H59.46v2h3.8v1.47h-3.8v2.16h4.06V69Z"/>
    </g>
  </g>
  <rect class="cls-6" x="0.5" y="0.5" width="81.25" height="81.25"/>
</svg>
